<svg role="img" viewBox="0 0 24 24" xmlns="http://www.w3.org/2000/svg" id="Actix--Streamline-Simple-Icons" height="24" width="24">
  <desc>
    Actix Streamline Icon: https://streamlinehq.com
  </desc>
  <title>Actix</title>
  <path d="M4.583 3.895c-0.27 0.22 -0.788 0.078 -1.164 -0.334 -0.156 0.156 -0.269 0.298 -0.411 0.454 0.411 0.334 0.596 0.866 0.376 1.114 -0.22 0.27 -0.752 0.22 -1.163 -0.113 -0.114 0.156 -0.22 0.333 -0.334 0.489 0.454 0.298 0.674 0.752 0.518 1.057s-0.674 0.334 -1.163 0.078c-0.079 0.192 -0.192 0.376 -0.27 0.518 0.489 0.22 0.752 0.596 0.631 0.944 -0.113 0.298 -0.596 0.411 -1.085 0.269 -0.078 0.192 -0.114 0.376 -0.156 0.568 0.489 0.156 0.816 0.489 0.752 0.787 -0.078 0.334 -0.518 0.518 -1.008 0.454 -0.028 0.192 -0.028 0.412 -0.078 0.596 0.49 0.078 0.866 0.334 0.866 0.674 0 0.341 -0.412 0.568 -0.894 0.596v0.596c0.49 0 0.894 0.22 0.944 0.518 0.028 0.298 -0.298 0.631 -0.788 0.709 0.028 0.192 0.078 0.412 0.114 0.596 0.489 -0.078 0.893 0.078 0.972 0.376 0.078 0.298 -0.192 0.674 -0.632 0.816 0.078 0.192 0.114 0.376 0.192 0.568 0.454 -0.156 0.894 -0.029 1.007 0.22 0.114 0.298 -0.078 0.674 -0.518 0.943 0.078 0.192 0.192 0.334 0.298 0.518 0.412 -0.22 0.866 -0.192 1.008 0.078 0.191 0.27 0 0.674 -0.334 0.972 0.114 0.156 0.22 0.333 0.376 0.489 0.376 -0.269 0.816 -0.297 1.007 -0.078 0.22 0.22 0.114 0.674 -0.191 1.008 0.156 0.156 0.298 0.298 0.454 0.411 0.333 -0.333 0.752 -0.454 1.007 -0.269 0.249 0.191 0.22 0.631 -0.028 1.057 0.156 0.113 0.333 0.22 0.489 0.333 0.298 -0.376 0.674 -0.567 0.944 -0.411s0.333 0.596 0.114 1.057c0.191 0.113 0.376 0.191 0.517 0.269 0.22 -0.411 0.596 -0.674 0.894 -0.567 0.298 0.113 0.412 0.567 0.298 1.007 0.192 0.078 0.376 0.114 0.568 0.192 0.156 -0.454 0.489 -0.752 0.787 -0.71 0.298 0.078 0.49 0.49 0.454 0.972 0.192 0.029 0.412 0.078 0.596 0.078 0.078 -0.489 0.334 -0.865 0.674 -0.816 0.334 0 0.568 0.412 0.596 0.944h0.596c0 -0.49 0.22 -0.894 0.518 -0.944 0.333 -0.028 0.631 0.334 0.752 0.816 0.191 -0.028 0.411 -0.078 0.596 -0.113 -0.114 -0.49 0.078 -0.944 0.376 -1.057 0.333 -0.078 0.709 0.22 0.865 0.752 0.192 -0.078 0.376 -0.114 0.568 -0.192 -0.192 -0.489 -0.114 -0.972 0.191 -1.114 0.298 -0.142 0.752 0.156 0.972 0.632 0.192 -0.078 0.376 -0.192 0.518 -0.27 -0.269 -0.454 -0.269 -0.972 0 -1.163 0.298 -0.192 0.788 0.028 1.086 0.489 0.156 -0.113 0.333 -0.22 0.489 -0.376 -0.376 -0.411 -0.454 -0.943 -0.191 -1.163 0.269 -0.22 0.787 -0.078 1.163 0.333 0.156 -0.156 0.298 -0.298 0.412 -0.411 -0.455 -0.376 -0.596 -0.866 -0.412 -1.114 0.22 -0.27 0.752 -0.22 1.192 0.156l0.028 0.028c0.114 -0.156 0.27 -0.333 0.376 -0.489 -0.489 -0.298 -0.752 -0.752 -0.596 -1.086 0.192 -0.298 0.71 -0.333 1.192 -0.028l0.029 0.028c0.113 -0.191 0.191 -0.376 0.269 -0.567h-0.028c-0.518 -0.192 -0.866 -0.632 -0.752 -0.972 0.113 -0.348 0.674 -0.454 1.192 -0.22 0.028 0 0.028 0.028 0.078 0.028 0.078 -0.191 0.156 -0.411 0.191 -0.596h-0.078c-0.567 -0.113 -0.972 -0.489 -0.894 -0.815 0.078 -0.334 0.596 -0.518 1.164 -0.412 0.028 0 0.078 0 0.113 0.029 0.029 -0.22 0.078 -0.412 0.114 -0.632h-0.114c-0.567 -0.028 -1.007 -0.333 -1.007 -0.674 0 -0.34 0.489 -0.631 1.057 -0.596H24v-0.631h-0.114c-0.567 0.078 -1.057 -0.192 -1.085 -0.518 -0.028 -0.333 0.376 -0.674 0.972 -0.752h0.156c-0.028 -0.22 -0.078 -0.411 -0.113 -0.631 -0.029 0 -0.078 0.028 -0.157 0.028 -0.567 0.156 -1.085 0 -1.163 -0.333 -0.113 -0.334 0.27 -0.752 0.816 -0.894 0.028 0 0.113 -0.029 0.156 -0.029 -0.078 -0.22 -0.156 -0.411 -0.22 -0.596 -0.028 0.029 -0.078 0.029 -0.156 0.078 -0.518 0.22 -1.057 0.156 -1.192 -0.156 -0.156 -0.333 0.156 -0.787 0.674 -1.007 0.078 -0.028 0.114 -0.028 0.192 -0.078 -0.114 -0.192 -0.192 -0.376 -0.298 -0.568 -0.029 0.029 -0.078 0.078 -0.156 0.114 -0.49 0.298 -1.008 0.333 -1.242 0.028 -0.191 -0.298 0.028 -0.787 0.518 -1.114 0.028 -0.028 0.113 -0.078 0.156 -0.078 -0.113 -0.191 -0.27 -0.333 -0.411 -0.517 -0.029 0.028 -0.078 0.078 -0.114 0.113 -0.411 0.376 -0.972 0.49 -1.192 0.22s-0.078 -0.787 0.334 -1.163c0.028 -0.029 0.113 -0.079 0.156 -0.114 -0.156 -0.156 -0.298 -0.298 -0.49 -0.454 -0.028 0.028 -0.078 0.078 -0.113 0.156 -0.376 0.454 -0.866 0.631 -1.164 0.412 -0.269 -0.22 -0.22 -0.752 0.156 -1.192 0.029 -0.029 0.078 -0.114 0.114 -0.156 -0.192 -0.114 -0.334 -0.27 -0.518 -0.376 -0.028 0.028 -0.028 0.113 -0.078 0.156 -0.298 0.489 -0.752 0.752 -1.086 0.596 -0.298 -0.192 -0.333 -0.71 -0.028 -1.192 0.028 -0.029 0.078 -0.114 0.114 -0.156 -0.192 -0.114 -0.376 -0.192 -0.596 -0.298 0 0.028 -0.029 0.113 -0.029 0.156 -0.191 0.518 -0.631 0.865 -0.972 0.752 -0.347 -0.114 -0.454 -0.674 -0.22 -1.192 0.029 -0.028 0.029 -0.114 0.078 -0.156 -0.191 -0.078 -0.411 -0.114 -0.631 -0.192 0 0.029 0 0.078 -0.028 0.156 -0.114 0.568 -0.49 0.972 -0.816 0.894 -0.334 -0.078 -0.518 -0.596 -0.412 -1.163 0 -0.029 0.029 -0.114 0.029 -0.156 -0.22 -0.029 -0.412 -0.078 -0.632 -0.078v0.113c-0.028 0.568 -0.333 1.008 -0.674 1.008 -0.333 0 -0.631 -0.49 -0.595 -1.057V0.078h-0.632v0.114c0.078 0.567 -0.191 1.057 -0.518 1.085 -0.333 0.028 -0.674 -0.376 -0.752 -0.972V0.192c-0.191 0.028 -0.411 0.078 -0.596 0.113 0 0.028 0 0.028 0.029 0.078 0.156 0.568 0 1.086 -0.334 1.164 -0.333 0.113 -0.752 -0.27 -0.894 -0.816V0.653c-0.191 0.078 -0.376 0.156 -0.596 0.22 0 0 0 0.028 0.029 0.028 0.22 0.518 0.156 1.057 -0.156 1.192 -0.334 0.156 -0.788 -0.156 -1.008 -0.674V1.39c-0.191 0.114 -0.376 0.192 -0.518 0.298 0.298 0.49 0.334 1.008 0.029 1.242 -0.298 0.191 -0.788 -0.028 -1.114 -0.518 -0.156 0.114 -0.333 0.27 -0.489 0.376 0.333 0.369 0.439 0.887 0.177 1.107m-0.518 6.491c-0.454 -0.156 -0.709 -0.631 -0.568 -1.085 0.157 -0.454 0.632 -0.71 1.086 -0.568 0.454 0.156 0.709 0.631 0.567 1.086 -0.113 0.446 -0.631 0.709 -1.085 0.567m0.78 8.194c-2.17 -2.391 -3.114 -5.725 -1.837 -6.889 1.241 -1.113 4.044 0.49 6.257 2.881 2.171 2.39 3.554 5.313 2.277 6.477 -1.269 1.135 -4.526 -0.107 -6.697 -2.469m9.138 2.171c-0.49 0.113 -0.944 -0.192 -1.057 -0.674 -0.114 -0.49 0.191 -0.944 0.674 -1.057 0.489 -0.114 0.943 0.191 1.057 0.674 0.085 0.511 -0.213 0.95 -0.674 1.057m6.073 -12.798c1.603 0.518 2.17 3.93 1.191 7.002s-3.412 5.555 -5.015 5.065c-1.604 -0.518 -1.604 -3.788 -0.632 -6.86 0.965 -3.036 2.852 -5.746 4.456 -5.207m-1.384 -2.029c0.334 0.376 0.298 0.894 -0.078 1.241 -0.376 0.348 -0.894 0.298 -1.241 -0.078 -0.348 -0.376 -0.298 -0.894 0.078 -1.241 0.376 -0.298 0.943 -0.256 1.241 0.078m-4.909 4.498c0.894 0.971 0.816 2.468 -0.156 3.362s-2.469 0.816 -3.363 -0.156 -0.816 -2.469 0.156 -3.363c0.958 -0.901 2.469 -0.822 3.363 0.157M9.946 2.554c3.143 -0.674 6.513 0.191 6.889 1.837s-2.469 3.257 -5.612 3.966c-3.143 0.674 -6.399 0.412 -6.746 -1.241 -0.384 -1.682 2.319 -3.881 5.469 -4.562" fill="#000000" stroke-width="1"></path>
</svg>